<svg id="Layer_1" data-name="Layer 1" xmlns="http://www.w3.org/2000/svg" viewBox="0 0 30 39.73"><defs><style>.cls-1{fill:#f5a02d;}</style></defs><title>about_us_icon_1</title><path class="cls-1" d="M29.58,20.07c-.88-1.53-3-2.14-6-1.81A11,11,0,1,0,8,19.11l0,0,.2.17.08.07a7.48,7.48,0,0,1,2.28,4,36,36,0,0,0-5.29,4c-2-2.07-3.11-4-3.25-5.4a2.56,2.56,0,0,0,.58.07,2.6,2.6,0,1,0-1.8-.74c-.2,1.92,1.14,4.4,3.59,6.93C1.31,31.41,0,34.46,1.17,36.47c.72,1.26,2.3,1.91,4.52,1.91a14.7,14.7,0,0,0,1.89-.15A2.59,2.59,0,1,0,7.34,37c-2.62.34-4.47-.07-5.1-1.16-.77-1.33.27-3.88,3-6.72A37,37,0,0,0,12,34.07a32.76,32.76,0,0,0,10.77,4.11,14.61,14.61,0,0,0,2.26.19c2.22,0,3.8-.65,4.52-1.91,1.16-2-.14-5.06-3.21-8.21C29.54,25,30.71,22,29.58,20.07Zm-27-1.94a1.35,1.35,0,1,1-1.35,1.35A1.35,1.35,0,0,1,2.59,18.13ZM9.91,35.79a1.35,1.35,0,1,1-1.35,1.35A1.35,1.35,0,0,1,9.91,35.79ZM28.5,20.69c.81,1.4-.36,3.95-3,6.7a36,36,0,0,0-5.28-4,7.44,7.44,0,0,1,1.91-3.63C25.38,19.07,27.77,19.42,28.5,20.69ZM11.94,28.63v-.94h6.87v.94Zm0-2.18V25.5h6.87v.95ZM9,18.37l-.21-.18a9.76,9.76,0,1,1,13.16,0l-.24.21-.06.06a8.7,8.7,0,0,0-2.82,5.81H11.91a8.72,8.72,0,0,0-2.83-5.82Zm-2.86,9.9a32.75,32.75,0,0,1,3.77-3v.23h.79v.95H9.91v1.24h.79v.95H9.91v1.24H20.83V28.63H20v-.95h.79V26.44H20V25.5h.79v-.23a32.66,32.66,0,0,1,3.75,3A35.8,35.8,0,0,1,18.1,33c-.91.53-1.83,1-2.74,1.44-.91-.43-1.82-.91-2.72-1.44A35.54,35.54,0,0,1,6.14,28.27ZM28.5,35.85C27.84,37,25.83,37.41,23,37a26.54,26.54,0,0,1-6.16-1.87c.64-.32,1.27-.66,1.9-1a37.1,37.1,0,0,0,6.75-4.95C28.23,32,29.28,34.52,28.5,35.85Z" transform="translate(0 0)"/><rect class="cls-1" x="12.94" y="30.81" width="4.85" height="1.24"/><polygon class="cls-1" points="14.78 16.44 15.96 16.81 17.98 10.37 14.45 10.37 15.96 5.54 14.78 5.17 12.77 11.61 16.29 11.61 14.78 16.44"/></svg>